<?xml version="1.0" standalone="no"?>
<!DOCTYPE svg PUBLIC "-//W3C//DTD SVG 20010904//EN"
 "http://www.w3.org/TR/2001/REC-SVG-20010904/DTD/svg10.dtd">
<svg version="1.0" xmlns="http://www.w3.org/2000/svg"
 width="176.000000pt" height="176.000000pt" viewBox="0 0 176.000000 176.000000"
 preserveAspectRatio="xMidYMid meet">
<metadata>
Created by potrace 1.11, written by Peter Selinger 2001-2013
</metadata>
<g transform="translate(0.000000,176.000000) scale(0.100000,-0.100000)"
fill="#000000" stroke="none">
<path d="M80 880 l0 -880 810 0 810 0 0 880 0 880 -810 0 -810 0 0 -880z
m1570 0 l0 -850 -760 0 -760 0 0 850 0 850 760 0 760 0 0 -850z"/>
<path d="M1332 1577 c-7 -7 -11 -24 -10 -38 0 -13 0 -72 -1 -131 l-1 -108 -30
0 -30 0 0 -191 0 -190 23 3 c22 3 22 6 27 168 7 199 12 199 12 0 -1 -80 3
-152 7 -159 5 -7 17 -11 27 -9 18 3 19 19 22 327 2 253 -1 326 -10 333 -18 11
-24 10 -36 -5z"/>
<path d="M310 1211 c0 -252 -2 -291 -15 -291 -11 0 -15 -11 -15 -40 0 -29 4
-40 15 -40 13 0 15 -41 17 -287 3 -280 4 -288 23 -288 19 0 20 8 25 290 3 160
8 283 12 275 5 -8 9 -139 10 -290 3 -267 4 -275 23 -275 19 0 20 8 25 155 3
85 7 152 9 148 8 -17 9 -34 10 -169 1 -140 1 -140 24 -137 l22 3 0 615 0 615
-22 3 c-23 3 -23 3 -23 -147 0 -203 -19 -211 -22 -9 -3 150 -3 153 -25 156
l-23 3 0 -285 c0 -176 -4 -287 -10 -291 -6 -4 -11 96 -12 282 l-3 288 -22 3
-23 3 0 -290z m139 -180 c1 -60 -2 -102 -9 -106 -7 -4 -10 30 -10 105 0 61 4
109 9 106 5 -3 9 -50 10 -105z m0 -300 c1 -60 -2 -102 -9 -106 -7 -4 -10 31
-10 105 0 62 4 109 9 106 5 -3 9 -50 10 -105z"/>
<path d="M534 1486 c-18 -14 -19 -33 -22 -594 -2 -574 -2 -579 18 -605 25 -31
60 -35 83 -9 15 17 17 73 17 604 0 554 -1 586 -18 601 -23 21 -52 22 -78 3z
m43 -893 c-1 -159 -2 -29 -2 287 0 316 1 446 2 288 2 -159 2 -417 0 -575z"/>
<path d="M687 1494 c-4 -4 -7 -69 -7 -144 0 -110 -3 -140 -15 -150 -22 -18
-22 -605 0 -637 11 -15 15 -57 17 -159 3 -131 4 -139 23 -139 19 0 20 8 23
141 2 126 5 143 22 159 19 17 20 32 20 317 0 287 -1 299 -20 318 -19 19 -21
32 -19 158 1 128 0 137 -18 140 -10 2 -22 0 -26 -4z m33 -614 c0 -180 -4 -280
-10 -280 -6 0 -10 100 -10 280 0 180 4 280 10 280 6 0 10 -100 10 -280z"/>
<path d="M785 1488 c-3 -7 -4 -285 -3 -618 l3 -605 58 -3 57 -3 0 144 c0 79
-3 146 -6 149 -3 3 -14 4 -24 1 -18 -5 -20 -17 -23 -127 l-3 -121 -2 133 -2
132 30 0 c25 0 30 4 30 25 0 21 -5 25 -30 25 l-30 0 2 113 2 112 5 -105 c6
-99 7 -105 29 -108 l22 -3 0 250 0 251 -25 0 c-24 0 -24 -1 -28 -107 l-3 -108
-2 113 -2 112 30 0 c25 0 30 4 30 25 0 21 -5 25 -30 25 l-30 0 2 133 2 132 3
-122 4 -123 24 0 25 0 0 145 0 145 -55 0 c-35 0 -57 -5 -60 -12z"/>
<path d="M925 1488 c-3 -7 -4 -285 -3 -618 3 -597 3 -605 23 -605 19 0 20 8
23 282 1 177 6 283 12 283 6 0 10 -99 10 -268 0 -248 1 -270 18 -285 19 -18
49 -22 68 -9 32 21 34 51 34 621 0 558 0 571 -20 591 -25 25 -62 26 -83 2 -15
-16 -17 -51 -17 -285 0 -171 -4 -267 -10 -267 -6 0 -10 102 -10 285 0 280 0
285 -20 285 -11 0 -23 -6 -25 -12z m125 -608 c1 -309 -2 -565 -5 -568 -3 -3
-5 253 -5 568 0 315 2 571 5 568 3 -2 5 -258 5 -568z"/>
<path d="M1124 1487 c-2 -7 -3 -71 -2 -142 l3 -130 32 -20 32 -20 1 -102 c0
-62 -4 -103 -10 -103 -6 0 -10 42 -10 105 l0 105 -25 0 -25 0 0 -110 c0 -97 2
-112 20 -130 24 -24 48 -25 78 -4 21 14 22 22 22 135 0 131 -6 153 -45 163
-25 6 -25 7 -25 111 0 63 4 105 10 105 6 0 10 -42 10 -105 l0 -105 25 0 25 0
0 130 0 130 -55 0 c-37 0 -57 -4 -61 -13z"/>
<path d="M1395 1488 c-3 -7 -4 -285 -3 -617 l3 -604 23 -3 c12 -2 22 1 22 9 1
6 1 76 0 155 -1 90 3 142 9 142 7 0 12 -57 13 -152 3 -145 4 -153 23 -153 20
0 20 8 23 618 l2 618 -22 -3 c-23 -3 -23 -6 -26 -155 -3 -206 -22 -203 -22 2
0 149 -1 155 -20 155 -11 0 -23 -6 -25 -12z m65 -608 c0 -151 -4 -260 -9 -260
-6 0 -9 109 -9 260 0 151 3 260 9 260 5 0 9 -109 9 -260z"/>
<path d="M1140 820 c-18 -18 -20 -33 -20 -130 l0 -110 25 0 25 0 0 105 c0 63
4 105 10 105 6 0 10 -41 10 -104 l0 -104 -30 -12 c-17 -7 -33 -22 -36 -34 -2
-11 -3 -77 -2 -146 l3 -125 55 0 55 0 3 128 3 127 -26 0 -25 0 0 -106 c0 -67
-4 -103 -10 -99 -6 3 -10 50 -10 106 0 86 2 100 18 106 48 17 52 30 52 158 0
105 -2 124 -18 138 -25 23 -58 21 -82 -3z"/>
<path d="M1260 651 l0 -191 33 0 32 0 0 -137 0 -138 28 -3 27 -3 -2 328 c-3
326 -3 328 -24 331 -30 4 -36 -26 -34 -182 2 -187 -3 -179 -10 14 -5 162 -5
165 -27 168 l-23 3 0 -190z"/>
</g>
</svg>
